<svg width="146" height="31" xmlns="http://www.w3.org/2000/svg" xmlns:xlink="http://www.w3.org/1999/xlink"><defs><path id="path-1" d="M.574.536h10.829V18.34H.573z"/></defs><g id="Page-1" stroke="none" stroke-width="1" fill="none" fill-rule="evenodd"><g id="mt-landing-vivid-rw-logo-v1" transform="translate(-150 -38)"><g id="logo-mailtrap-dark" transform="translate(150 38)"><g id="logo-text" transform="translate(68)"><path d="M36.844.254h-.76v16.64h3.125v-14.2a2.154 2.154 0 0 0-2.365-2.44" id="Fill-12" fill="#4A4A4A"/><path d="M47.174 4.105H44.04v-1.41A2.152 2.152 0 0 0 41.675.27h-.71v16.64h3.127V7.204h.692a2.153 2.153 0 0 0 2.39-2.348v-.752z" id="Fill-14" fill="#4A4A4A"/><path d="M31.987 4.105h-.76v12.789h3.125V6.546a2.154 2.154 0 0 0-2.365-2.44" id="Fill-16" fill="#4A4A4A"/><path d="M12.45 3.514a5.176 5.176 0 0 0-3.58 1.47A5.178 5.178 0 0 0 .033 8.658v8.236h3.125V8.658a2.06 2.06 0 0 1 4.114 0v8.236h3.124V8.658a2.062 2.062 0 0 1 4.114 0v8.236h3.126V8.658a5.177 5.177 0 0 0-5.187-5.144" id="Fill-18" fill="#4A4A4A"/><path d="M31.987.254h-.76v2.44h3.125a2.154 2.154 0 0 0-2.365-2.44" id="Fill-20" fill="#4A4A4A"/><path d="M26.53 12.392c0 1.79-1.84 2.483-3.184 2.179-1.587-.363-1.883-2.019-.59-2.78 1.292-.76 2.845-.253 3.783-1.106l-.008 1.707zm-7.264-5.187h3.27a2.12 2.12 0 0 1 1.975-.912c2.46.068 2.789 2.331-.218 2.39a7.047 7.047 0 0 0-3.16.845c-3.251 1.808-2.923 5.845.245 7.366 3.167 1.52 8.261-.093 8.261-4.612V9.393c0-1.546.06-2.627-.971-3.961-2.382-3.109-8.404-2.484-9.402 1.773z" id="Fill-22" fill="#4A4A4A"/><path d="M47.064 9.25v7.602h3.125V9.25a2.07 2.07 0 0 1 2.053-2.044h1.833v-3.1h-1.833a5.178 5.178 0 0 0-5.178 5.144" id="Fill-24" fill="#4A4A4A"/><g id="Group-28" transform="translate(65.883 2.957)"><mask id="mask-2" fill="#fff"><use xlink:href="#path-1"/></mask><path d="M8.295 9.502c0 2.433-4.291 2.534-4.604.27V5.49c0-2.534 4.62-2.534 4.62 0l-.016 4.012zM.574 5.49v12.839h.76A2.153 2.153 0 0 0 3.7 15.905v-1.859c3.193 1.225 7.703-.32 7.703-4.544V5.49c0-6.605-10.83-6.605-10.83 0z" id="Fill-26" fill="#4A4A4A" mask="url(#mask-2)"/></g><path d="M61.93 12.392c0 1.79-1.841 2.483-3.184 2.179-1.588-.363-1.883-2.019-.6-2.78 1.285-.76 2.847-.253 3.775-1.106l.01 1.707zm-7.264-5.187h3.27c.44-.65 1.204-1 1.984-.912 2.458.068 2.788 2.331-.22 2.39a7.03 7.03 0 0 0-3.158.845c-3.26 1.808-2.923 5.845.235 7.366 3.16 1.52 8.262-.093 8.262-4.612V9.393c0-1.546.068-2.627-.972-3.961-2.39-3.109-8.404-2.484-9.401 1.773z" id="Fill-29" fill="#4A4A4A"/></g><g id="&lt;" transform="rotate(180 8 15)" stroke="#4A4A4A" stroke-width="1.5"><g id="Group" transform="matrix(1 0 0 -1 1 30)" fill="#4A4A4A"><path d="M14.03 17.399V10.42L5.16 1.51a2.58 2.58 0 0 0-3.664 3.634L14.03 17.4z" id="Fill-10"/></g><path d="M5.68 16.134c-.214-6.325-.32-10.406-.32-12.245 0-2.758 1.3-3.675 2.722-3.675 1.423 0 2.722.982 2.722 3.675 0 1.796.166 5.308.496 10.538" id="Line-13" stroke-linecap="square" transform="rotate(-42 8.33 8.174)"/></g><g id="&lt;" transform="translate(43)" stroke="#4A4A4A" stroke-width="1.5"><g id="Group" transform="matrix(1 0 0 -1 1 30)" fill="#4A4A4A"><path d="M14.03 17.399V10.42L5.16 1.51a2.58 2.58 0 0 0-3.664 3.634L14.03 17.4z" id="Fill-10"/></g><path d="M5.68 16.134c-.214-6.325-.32-10.406-.32-12.245 0-2.758 1.3-3.675 2.722-3.675 1.423 0 2.722.982 2.722 3.675 0 1.796.166 5.308.496 10.538" id="Line-13" stroke-linecap="square" transform="rotate(-42 8.33 8.174)"/></g><g id="logo-email" transform="translate(18 7)"><rect id="Rectangle-27" fill="#5AFFDF" x="3" y="3" width="19" height="13" rx="2"/><path d="M3.352 5.416l8.773-.224a.731.731 0 0 1 .75.73.77.77 0 0 1-.75.77l-8.773.224a.731.731 0 0 1-.75-.73.77.77 0 0 1 .75-.77z" id="Rectangle-24" fill="#4A4A4A" transform="rotate(32 7.739 6.054)"/><path d="M11.092 5.24l8.59.159c.417.007.75.347.75.763a.736.736 0 0 1-.75.737l-8.59-.158a.764.764 0 0 1-.75-.764.736.736 0 0 1 .75-.736z" id="Rectangle-24" fill="#4A4A4A" transform="scale(-1 1) rotate(32 0 -47.593)"/><rect id="Rectangle-27" stroke="#4A4A4A" stroke-width="1.5" x=".75" y=".75" width="20.5" height="14.5" rx="2.5"/></g><text id="by-railsware" font-family="ArialMT, Arial" font-size="10" font-weight="normal" fill="#4A4A4A"><tspan x="68" y="28">by railsware</tspan></text></g></g></g></svg>